<?xml version="1.0" encoding="UTF-8" standalone="no"?>
<svg
   xmlns:dc="http://purl.org/dc/elements/1.1/"
   xmlns:cc="http://creativecommons.org/ns#"
   xmlns:rdf="http://www.w3.org/1999/02/22-rdf-syntax-ns#"
   xmlns:svg="http://www.w3.org/2000/svg"
   xmlns="http://www.w3.org/2000/svg"
   xmlns:sodipodi="http://sodipodi.sourceforge.net/DTD/sodipodi-0.dtd"
   xmlns:inkscape="http://www.inkscape.org/namespaces/inkscape"
   height="780"
   width="1020"
   version="1.1"
   viewBox="0 0 956.25416 731.25001"
   id="svg198"
   sodipodi:docname="logo.svg"
   inkscape:version="1.0.2 (e86c870879, 2021-01-15)">
  <metadata
     id="metadata204">
    <rdf:RDF>
      <cc:Work
         rdf:about="">
        <dc:format>image/svg+xml</dc:format>
        <dc:type
           rdf:resource="http://purl.org/dc/dcmitype/StillImage" />
        <dc:title></dc:title>
      </cc:Work>
    </rdf:RDF>
  </metadata>
  <defs
     id="defs202" />
  <sodipodi:namedview
     pagecolor="#ffffff"
     bordercolor="#666666"
     borderopacity="1"
     objecttolerance="10"
     gridtolerance="10"
     guidetolerance="10"
     inkscape:pageopacity="0"
     inkscape:pageshadow="2"
     inkscape:window-width="3034"
     inkscape:window-height="2057"
     id="namedview200"
     showgrid="false"
     fit-margin-top="6"
     fit-margin-left="6"
     fit-margin-right="6"
     fit-margin-bottom="6"
     inkscape:zoom="0.70710678"
     inkscape:cx="224.02439"
     inkscape:cy="459.5"
     inkscape:window-x="2722"
     inkscape:window-y="62"
     inkscape:window-maximized="0"
     inkscape:current-layer="g192"
     units="px"
     inkscape:document-rotation="0" />
  <g
     transform="matrix(0.82873288,0,0,0.82873288,-190.83917,355.56657)"
     id="g196"
     style="stroke-width:1.20666134">
    <g
       id="g349"
       transform="matrix(0.91689896,0,0,0.91689896,810.2285,2.918642)"
       style="stroke-width:1.3160243">
      <g
         style="stroke-width:0.74052739"
         id="g194"
         transform="matrix(1.7462401,0,0,-1.7462401,-1005.325,1008.4537)">
        <g
           style="stroke-width:0.74052739"
           id="g192"
           transform="matrix(0.39992,0,0,0.39992,630.51,227.03)">
          <g
             id="g235"
             transform="matrix(0.91416919,0,0,0.91416919,71.694546,359.4156)"
             style="stroke-width:0.81005508">
            <rect
               style="color:#000000;isolation:auto;mix-blend-mode:normal;solid-color:#000000;fill:#ffffff;stroke-width:6.9483676;color-rendering:auto;image-rendering:auto;shape-rendering:auto"
               rx="0"
               ry="0"
               height="190.58125"
               width="317.88126"
               y="252.92874"
               x="229.5"
               id="rect2"
               transform="matrix(1.4319337,0,0,-1.4319337,-137.03153,876.35033)" />
            <g
               transform="translate(323.08,511.64)"
               id="g6"
               style="stroke-width:0.81005508">
              <path
                 d="M 0,0 -129.58,-129.59 V 0 Z"
                 id="path4"
                 inkscape:connector-curvature="0"
                 style="fill:#00b8de;stroke-width:0.81005508" />
            </g>
            <g
               transform="translate(452.67,511.64)"
               id="g10"
               style="stroke-width:0.81005508">
              <path
                 d="M 0,0 V -129.59 H -129.59 V 0 l 64.795,-64.795 z"
                 id="path8"
                 inkscape:connector-curvature="0"
                 style="fill:#00b8de;stroke-width:0.81005508" />
            </g>
            <path
               style="fill:#00b8de;stroke-width:0.81005508"
               inkscape:connector-curvature="0"
               id="path12"
               d="m 517.47,382.05 v 64.795 h -64.795 l 64.795,64.795 h 129.58 z" />
            <g
               style="stroke-width:0.81005508"
               id="g1025">
              <path
                 style="fill:#000000;stroke-width:0.81005508"
                 inkscape:connector-curvature="0"
                 id="path16"
                 d="m 193.5,359.06 h 7.187 V 326.375 H 193.5 Z" />
              <g
                 style="stroke-width:0.81005508"
                 id="g20"
                 transform="translate(206.71,359.07)">
                <path
                   style="fill:#000000;stroke-width:0.81005508"
                   inkscape:connector-curvature="0"
                   id="path18"
                   d="m 0,0 h 10.116 l 7.645,-22.477 h 0.092 L 25.085,0 H 35.202 V -32.685 H 28.473 V -9.521 H 28.381 L 20.37,-32.685 H 14.832 L 6.82,-9.75 H 6.729 V -32.685 H 0 Z" />
              </g>
              <g
                 style="stroke-width:0.81005508"
                 id="g24"
                 transform="translate(254.85,353.02)">
                <path
                   style="fill:#000000;stroke-width:0.81005508"
                   inkscape:connector-curvature="0"
                   id="path22"
                   d="M 0,0 H -9.796 V 6.043 H 16.983 V 0 H 7.187 V -26.642 H 0 Z" />
              </g>
            </g>
            <g
               style="stroke-width:0.81005508"
               id="g1116"
               transform="translate(5.9145258)">
              <g
                 style="stroke-width:0.81005508"
                 id="g28"
                 transform="translate(286.94,359.07)">
                <path
                   style="fill:#000000;stroke-width:0.81005508"
                   inkscape:connector-curvature="0"
                   id="path26"
                   d="m 0,0 h 7.187 v -26.642 h 15.93 v -6.043 H 0 Z" />
              </g>
              <path
                 style="fill:#000000;stroke-width:0.81005508"
                 inkscape:connector-curvature="0"
                 id="path30"
                 d="m 313.08,350.05 h 6.5 v -23.667 h -6.5 z m 6.5,3.662 h -6.5 v 5.356 h 6.5 z" />
              <path
                 style="fill:#000000;stroke-width:0.81005508"
                 inkscape:connector-curvature="0"
                 id="path32"
                 d="m 324.65,359.06 h 6.5 v -32.685 h -6.5 z" />
              <path
                 style="fill:#000000;stroke-width:0.81005508"
                 inkscape:connector-curvature="0"
                 id="path34"
                 d="m 336.22,359.06 h 6.5 v -32.685 h -6.5 z" />
              <g
                 style="stroke-width:0.81005508"
                 id="g38"
                 transform="translate(363.69,340.75)">
                <path
                   style="fill:#000000;stroke-width:0.81005508"
                   inkscape:connector-curvature="0"
                   id="path36"
                   d="m 0,0 c -0.595,3.296 -2.014,5.035 -5.172,5.035 -4.12,0 -5.31,-3.204 -5.402,-5.035 z m -10.574,-4.12 c 0.183,-4.12 2.197,-5.997 5.813,-5.997 2.61,0 4.716,1.602 5.127,3.067 h 5.722 c -1.831,-5.585 -5.722,-7.965 -11.077,-7.965 -7.462,0 -12.085,5.127 -12.085,12.452 0,7.095 4.898,12.496 12.085,12.496 C 3.067,9.933 6.958,3.158 6.5,-4.12 Z" />
              </g>
            </g>
            <g
               style="stroke-width:0.81005508"
               id="g1107"
               transform="translate(9.7192599)">
              <g
                 style="stroke-width:0.81005508"
                 id="g42"
                 transform="translate(394.63,332.42)">
                <path
                   style="fill:#000000;stroke-width:0.81005508"
                   inkscape:connector-curvature="0"
                   id="path40"
                   d="m 0,0 h 6.408 c 4.166,0 8.149,2.563 8.149,9.796 0,6.592 -2.289,10.803 -9.43,10.803 H 0 Z M -7.187,26.642 H 6.912 c 8.469,0 14.832,-5.31 14.832,-16.159 0,-9.476 -4.853,-16.525 -14.832,-16.525 H -7.187 Z" />
              </g>
              <g
                 style="stroke-width:0.81005508"
                 id="g46"
                 transform="translate(431.77,330.64)">
                <path
                   style="fill:#000000;stroke-width:0.81005508"
                   inkscape:connector-curvature="0"
                   id="path44"
                   d="m 0,0 c 4.44,0 5.769,3.799 5.769,7.553 0,3.8 -1.329,7.599 -5.769,7.599 -4.395,0 -5.722,-3.799 -5.722,-7.599 C -5.722,3.799 -4.395,0 0,0 M 0,20.05 C 7.462,20.05 12.269,15.106 12.269,7.553 12.269,0.045 7.462,-4.898 0,-4.898 c -7.415,0 -12.222,4.943 -12.222,12.451 0,7.553 4.807,12.497 12.222,12.497" />
              </g>
              <g
                 style="stroke-width:0.81005508"
                 id="g50"
                 transform="translate(470.09,326.38)">
                <path
                   style="fill:#000000;stroke-width:0.81005508"
                   inkscape:connector-curvature="0"
                   id="path48"
                   d="m 0,0 h -6.18 v 3.296 h -0.137 c -1.649,-2.655 -4.487,-3.937 -7.233,-3.937 -6.913,0 -8.652,3.891 -8.652,9.75 v 14.558 h 6.501 V 10.3 c 0,-3.891 1.143,-5.814 4.165,-5.814 3.524,0 5.035,1.969 5.035,6.775 V 23.667 H 0 Z" />
              </g>
              <g
                 style="stroke-width:0.81005508"
                 id="g54"
                 transform="translate(489.78,337.96)">
                <path
                   style="fill:#000000;stroke-width:0.81005508"
                   inkscape:connector-curvature="0"
                   id="path52"
                   d="m 0,0 c -1.099,-0.961 -3.388,-1.007 -5.401,-1.374 -2.015,-0.412 -3.846,-1.098 -3.846,-3.479 0,-2.426 1.877,-3.021 3.982,-3.021 5.081,0 5.265,4.029 5.265,5.448 z m -15.015,4.806 c 0.367,6.089 5.814,7.92 11.124,7.92 C 0.824,12.726 6.5,11.673 6.5,5.997 V -6.317 c 0,-2.152 0.229,-4.303 0.824,-5.265 H 0.732 c -0.228,0.733 -0.412,1.511 -0.458,2.29 -2.059,-2.152 -5.081,-2.93 -7.964,-2.93 -4.487,0 -8.057,2.243 -8.057,7.095 0,5.356 4.028,6.637 8.057,7.187 C -3.708,2.655 0,2.518 0,5.172 0,7.965 -1.923,8.377 -4.211,8.377 -6.684,8.377 -8.285,7.37 -8.515,4.806 Z" />
              </g>
              <path
                 style="fill:#000000;stroke-width:0.81005508"
                 inkscape:connector-curvature="0"
                 id="path56"
                 d="m 501.37,350.05 h 6.5 v -23.667 h -6.5 z m 6.5,3.662 h -6.5 v 5.356 h 6.5 z" />
            </g>
            <g
               style="stroke-width:0.81005508"
               id="g1036">
              <g
                 style="stroke-width:0.81005508"
                 id="g60"
                 transform="translate(206.61,317.41)">
                <path
                   style="fill:#000000;stroke-width:0.81005508"
                   inkscape:connector-curvature="0"
                   id="path58"
                   d="M 0,0 -4.563,-4.939 H -6.921 L -3.794,0 Z M -13.125,-6.921 H 5.093 V -9.998 H -9.81 V -17.62 H 3.965 v -2.905 H -9.81 v -8.511 H 5.349 v -2.99 h -18.474 z" />
              </g>
              <g
                 style="stroke-width:0.81005508"
                 id="g64"
                 transform="translate(227.2,302.71)">
                <path
                   style="fill:#000000;stroke-width:0.81005508"
                   inkscape:connector-curvature="0"
                   id="path62"
                   d="m 0,0 c 1.293,-1.003 2.071,-2.729 2.333,-5.178 h -2.991 c -0.182,1.128 -0.598,2.065 -1.247,2.811 -0.65,0.746 -1.692,1.119 -3.128,1.119 -1.96,0 -3.361,-0.956 -4.204,-2.867 -0.547,-1.24 -0.82,-2.771 -0.82,-4.592 0,-1.832 0.387,-3.374 1.162,-4.625 0.774,-1.252 1.994,-1.878 3.657,-1.878 1.276,0 2.287,0.389 3.034,1.166 0.746,0.777 1.261,1.841 1.546,3.191 h 2.991 c -0.342,-2.425 -1.196,-4.201 -2.563,-5.323 -1.368,-1.122 -3.117,-1.682 -5.247,-1.682 -2.393,0 -4.301,0.874 -5.725,2.623 -1.424,1.748 -2.136,3.932 -2.136,6.553 0,3.213 0.78,5.714 2.341,7.503 1.56,1.788 3.549,2.683 5.964,2.683 C -2.971,1.504 -1.293,1.002 0,0" />
              </g>
              <g
                 style="stroke-width:0.81005508"
                 id="g68"
                 transform="translate(244.02,289.69)">
                <path
                   style="fill:#000000;stroke-width:0.81005508"
                   inkscape:connector-curvature="0"
                   id="path66"
                   d="m 0,0 c 0.75,1.542 1.124,3.257 1.124,5.146 0,1.707 -0.27,3.095 -0.811,4.165 -0.856,1.684 -2.332,2.526 -4.428,2.526 -1.859,0 -3.21,-0.716 -4.055,-2.15 -0.845,-1.435 -1.268,-3.164 -1.268,-5.189 0,-1.946 0.423,-3.568 1.268,-4.865 0.845,-1.297 2.185,-1.946 4.022,-1.946 2.016,0 3.399,0.771 4.148,2.313 M 1.91,12.164 C 3.528,10.593 4.337,8.282 4.337,5.231 4.337,2.283 3.624,-0.152 2.199,-2.076 0.773,-4 -1.438,-4.962 -4.437,-4.962 c -2.5,0 -4.485,0.851 -5.956,2.553 -1.471,1.701 -2.206,3.986 -2.206,6.855 0,3.074 0.775,5.521 2.325,7.343 1.549,1.821 3.631,2.732 6.245,2.732 2.342,0 4.321,-0.786 5.939,-2.357" />
              </g>
              <path
                 style="fill:#000000;stroke-width:0.81005508"
                 inkscape:connector-curvature="0"
                 id="path70"
                 d="m 251.8,310.49 h 3.076 V 285.385 H 251.8 Z" />
              <g
                 style="stroke-width:0.81005508"
                 id="g74"
                 transform="translate(271.55,295.99)">
                <path
                   style="fill:#000000;stroke-width:0.81005508"
                   inkscape:connector-curvature="0"
                   id="path72"
                   d="M 0,0 C -0.125,1.333 -0.413,2.397 -0.864,3.195 -1.7,4.676 -3.096,5.417 -5.05,5.417 -6.451,5.417 -7.626,4.907 -8.575,3.888 -9.524,2.868 -10.027,1.572 -10.083,0 Z M -1.102,7.186 C 0.11,6.576 1.033,5.787 1.667,4.819 2.278,3.896 2.686,2.819 2.89,1.589 3.071,0.746 3.162,-0.599 3.162,-2.444 h -13.313 c 0.056,-1.863 0.491,-3.357 1.305,-4.482 0.814,-1.125 2.075,-1.687 3.782,-1.687 1.593,0 2.865,0.531 3.815,1.595 0.531,0.619 0.908,1.334 1.129,2.147 H 2.905 C 2.825,-5.544 2.561,-6.293 2.11,-7.118 1.66,-7.944 1.158,-8.62 0.604,-9.144 c -0.927,-0.912 -2.075,-1.526 -3.442,-1.845 -0.736,-0.182 -1.567,-0.274 -2.494,-0.274 -2.264,0 -4.183,0.829 -5.757,2.487 -1.574,1.658 -2.361,3.979 -2.361,6.964 0,2.939 0.793,5.326 2.378,7.161 1.585,1.834 3.657,2.751 6.217,2.751 1.291,0 2.542,-0.305 3.753,-0.914" />
              </g>
            </g>
            <g
               style="stroke-width:0.81005508"
               id="g1096"
               transform="translate(5.4122746)">
              <g
                 style="stroke-width:0.81005508"
                 id="g78"
                 transform="translate(288.66,310.49)">
                <path
                   style="fill:#000000;stroke-width:0.81005508"
                   inkscape:connector-curvature="0"
                   id="path76"
                   d="M 0,0 H 4.872 L 12.091,-21.226 19.259,0 h 4.838 V -25.105 H 20.85 v 14.817 c 0,0.513 0.011,1.361 0.034,2.546 0.022,1.185 0.034,2.455 0.034,3.811 L 13.75,-25.105 H 10.38 L 3.145,-3.931 V -4.7 c 0,-0.615 0.017,-1.552 0.051,-2.811 0.034,-1.259 0.051,-2.185 0.051,-2.777 V -25.105 H 0 Z" />
              </g>
              <path
                 style="fill:#000000;stroke-width:0.81005508"
                 inkscape:connector-curvature="0"
                 id="path80"
                 d="m 317.21,303.6 h 3.127 v -18.218 h -3.127 z m 0,6.887 h 3.127 v -3.486 h -3.127 z" />
              <g
                 style="stroke-width:0.81005508"
                 id="g84"
                 transform="translate(324.51,303.68)">
                <path
                   style="fill:#000000;stroke-width:0.81005508"
                   inkscape:connector-curvature="0"
                   id="path82"
                   d="m 0,0 h 2.922 v -2.598 c 0.866,1.071 1.783,1.84 2.752,2.307 0.968,0.467 2.045,0.701 3.23,0.701 2.597,0 4.352,-0.906 5.263,-2.717 0.501,-0.991 0.752,-2.41 0.752,-4.255 v -11.741 h -3.127 v 11.535 c 0,1.117 -0.166,2.017 -0.496,2.701 -0.546,1.139 -1.538,1.709 -2.973,1.709 -0.73,0 -1.328,-0.075 -1.795,-0.223 C 5.685,-2.832 4.944,-3.333 4.307,-4.084 3.794,-4.688 3.461,-5.312 3.307,-5.956 3.153,-6.6 3.076,-7.52 3.076,-8.715 v -9.588 H 0 Z" />
              </g>
              <g
                 style="stroke-width:0.81005508"
                 id="g88"
                 transform="translate(355.98,295.99)">
                <path
                   style="fill:#000000;stroke-width:0.81005508"
                   inkscape:connector-curvature="0"
                   id="path86"
                   d="M 0,0 C -0.125,1.333 -0.413,2.397 -0.864,3.195 -1.7,4.676 -3.096,5.417 -5.05,5.417 -6.451,5.417 -7.626,4.907 -8.575,3.888 -9.524,2.868 -10.027,1.572 -10.083,0 Z M -1.102,7.186 C 0.11,6.576 1.033,5.787 1.667,4.819 2.278,3.896 2.686,2.819 2.89,1.589 3.071,0.746 3.162,-0.599 3.162,-2.444 h -13.313 c 0.056,-1.863 0.491,-3.357 1.305,-4.482 0.814,-1.125 2.075,-1.687 3.782,-1.687 1.593,0 2.865,0.531 3.815,1.595 0.531,0.619 0.908,1.334 1.129,2.147 H 2.905 C 2.825,-5.544 2.561,-6.293 2.11,-7.118 1.66,-7.944 1.158,-8.62 0.604,-9.144 c -0.927,-0.912 -2.075,-1.526 -3.442,-1.845 -0.736,-0.182 -1.567,-0.274 -2.494,-0.274 -2.264,0 -4.183,0.829 -5.757,2.487 -1.574,1.658 -2.361,3.979 -2.361,6.964 0,2.939 0.793,5.326 2.378,7.161 1.585,1.834 3.657,2.751 6.217,2.751 1.291,0 2.542,-0.305 3.753,-0.914" />
              </g>
              <g
                 style="stroke-width:0.81005508"
                 id="g92"
                 transform="translate(364.35,291.12)">
                <path
                   style="fill:#000000;stroke-width:0.81005508"
                   inkscape:connector-curvature="0"
                   id="path90"
                   d="m 0,0 c 0.093,-1.025 0.354,-1.812 0.785,-2.358 0.791,-0.992 2.163,-1.488 4.116,-1.488 1.163,0 2.186,0.248 3.07,0.744 0.884,0.496 1.326,1.262 1.326,2.299 0,0.785 -0.354,1.384 -1.06,1.794 C 7.786,1.241 6.894,1.532 5.563,1.863 L 3.079,2.479 c -1.586,0.386 -2.756,0.82 -3.508,1.298 -1.343,0.831 -2.015,1.982 -2.015,3.452 0,1.731 0.632,3.133 1.897,4.204 1.264,1.071 2.964,1.607 5.1,1.607 2.794,0 4.809,-0.81 6.044,-2.427 0.774,-1.026 1.149,-2.131 1.127,-3.316 H 8.818 C 8.76,7.988 8.509,8.617 8.066,9.184 7.343,9.988 6.089,10.391 4.305,10.391 3.115,10.391 2.214,10.169 1.602,9.727 0.99,9.284 0.684,8.699 0.684,7.973 0.684,7.178 1.086,6.542 1.891,6.065 2.354,5.781 3.04,5.531 3.945,5.315 L 6.017,4.819 c 2.252,-0.536 3.761,-1.053 4.527,-1.555 1.197,-0.785 1.795,-2.023 1.795,-3.708 0,-1.63 -0.626,-3.036 -1.878,-4.222 -1.251,-1.185 -3.157,-1.777 -5.718,-1.777 -2.757,0 -4.709,0.619 -5.857,1.854 -1.147,1.236 -1.762,2.766 -1.843,4.589 z" />
              </g>
              <path
                 style="fill:#000000;stroke-width:0.81005508"
                 inkscape:connector-curvature="0"
                 id="path94"
                 d="m 380.59,296.71 h 8.579 v -3.162 h -8.579 z" />
              <g
                 style="stroke-width:0.81005508"
                 id="g98"
                 transform="translate(407.54,310.49)">
                <path
                   style="fill:#000000;stroke-width:0.81005508"
                   inkscape:connector-curvature="0"
                   id="path96"
                   d="m 0,0 v -2.991 h -8.459 v -22.114 h -3.436 v 22.114 h -8.459 V 0 Z" />
              </g>
              <g
                 style="stroke-width:0.81005508"
                 id="g102"
                 transform="translate(416.61,311.05)">
                <path
                   style="fill:#000000;stroke-width:0.81005508"
                   inkscape:connector-curvature="0"
                   id="path100"
                   d="M 0,0 -4.563,-4.939 H -6.921 L -3.794,0 Z m 1.23,-15.056 c -0.124,1.333 -0.412,2.398 -0.864,3.196 -0.836,1.481 -2.231,2.221 -4.185,2.221 -1.401,0 -2.577,-0.51 -3.525,-1.529 -0.949,-1.02 -1.452,-2.316 -1.509,-3.888 z M 0.129,-7.87 c 1.211,-0.609 2.134,-1.399 2.768,-2.367 0.612,-0.923 1.019,-1.999 1.223,-3.23 0.181,-0.843 0.272,-2.187 0.272,-4.033 H -8.921 c 0.057,-1.862 0.492,-3.356 1.306,-4.481 0.814,-1.125 2.074,-1.688 3.781,-1.688 1.594,0 2.866,0.531 3.815,1.596 0.532,0.618 0.908,1.334 1.13,2.146 H 4.136 C 4.056,-20.6 3.791,-21.349 3.341,-22.174 2.891,-23 2.389,-23.676 1.835,-24.199 c -0.927,-0.912 -2.075,-1.527 -3.443,-1.846 -0.735,-0.182 -1.566,-0.273 -2.493,-0.273 -2.265,0 -4.184,0.829 -5.758,2.486 -1.574,1.658 -2.36,3.979 -2.36,6.964 0,2.94 0.792,5.326 2.378,7.161 1.585,1.834 3.657,2.751 6.216,2.751 1.291,0 2.542,-0.305 3.754,-0.914" />
              </g>
              <path
                 style="fill:#000000;stroke-width:0.81005508"
                 inkscape:connector-curvature="0"
                 id="path104"
                 d="m 424.44,310.49 h 3.076 v -25.105 h -3.076 z" />
              <g
                 style="stroke-width:0.81005508"
                 id="g108"
                 transform="translate(442.97,311.05)">
                <path
                   style="fill:#000000;stroke-width:0.81005508"
                   inkscape:connector-curvature="0"
                   id="path106"
                   d="M 0,0 -4.563,-4.939 H -6.921 L -3.794,0 Z m 1.23,-15.056 c -0.124,1.333 -0.412,2.398 -0.864,3.196 -0.836,1.481 -2.231,2.221 -4.185,2.221 -1.402,0 -2.577,-0.51 -3.526,-1.529 -0.948,-1.02 -1.451,-2.316 -1.508,-3.888 z M 0.129,-7.87 c 1.211,-0.609 2.134,-1.399 2.768,-2.367 0.612,-0.923 1.019,-1.999 1.223,-3.23 0.182,-0.843 0.272,-2.187 0.272,-4.033 H -8.921 c 0.057,-1.862 0.492,-3.356 1.306,-4.481 0.814,-1.125 2.074,-1.688 3.781,-1.688 1.594,0 2.866,0.531 3.815,1.596 0.532,0.618 0.909,1.334 1.129,2.146 H 4.136 C 4.056,-20.6 3.791,-21.349 3.341,-22.174 2.891,-23 2.389,-23.676 1.835,-24.199 c -0.928,-0.912 -2.075,-1.527 -3.443,-1.846 -0.735,-0.182 -1.566,-0.273 -2.494,-0.273 -2.263,0 -4.183,0.829 -5.756,2.486 -1.575,1.658 -2.362,3.979 -2.362,6.964 0,2.94 0.793,5.326 2.378,7.161 1.586,1.834 3.657,2.751 6.217,2.751 1.291,0 2.542,-0.305 3.754,-0.914" />
              </g>
              <g
                 style="stroke-width:0.81005508"
                 id="g112"
                 transform="translate(463.05,302.71)">
                <path
                   style="fill:#000000;stroke-width:0.81005508"
                   inkscape:connector-curvature="0"
                   id="path110"
                   d="m 0,0 c 1.293,-1.003 2.07,-2.729 2.333,-5.178 h -2.99 c -0.183,1.128 -0.599,2.065 -1.248,2.811 -0.65,0.746 -1.692,1.119 -3.127,1.119 -1.96,0 -3.362,-0.956 -4.205,-2.867 -0.547,-1.24 -0.821,-2.771 -0.821,-4.592 0,-1.832 0.388,-3.374 1.162,-4.625 0.776,-1.252 1.995,-1.878 3.659,-1.878 1.275,0 2.286,0.389 3.033,1.166 0.746,0.777 1.262,1.841 1.547,3.191 h 2.99 c -0.342,-2.425 -1.196,-4.201 -2.563,-5.323 -1.368,-1.122 -3.117,-1.682 -5.248,-1.682 -2.392,0 -4.3,0.874 -5.724,2.623 -1.425,1.748 -2.137,3.932 -2.137,6.553 0,3.213 0.78,5.714 2.342,7.503 1.56,1.788 3.549,2.683 5.965,2.683 C -2.971,1.504 -1.293,1.002 0,0" />
              </g>
              <g
                 style="stroke-width:0.81005508"
                 id="g116"
                 transform="translate(479.87,289.69)">
                <path
                   style="fill:#000000;stroke-width:0.81005508"
                   inkscape:connector-curvature="0"
                   id="path114"
                   d="m 0,0 c 0.749,1.542 1.124,3.257 1.124,5.146 0,1.707 -0.27,3.095 -0.812,4.165 -0.855,1.684 -2.332,2.526 -4.426,2.526 -1.86,0 -3.211,-0.716 -4.056,-2.15 -0.845,-1.435 -1.268,-3.164 -1.268,-5.189 0,-1.946 0.423,-3.568 1.268,-4.865 0.845,-1.297 2.186,-1.946 4.022,-1.946 2.016,0 3.399,0.771 4.148,2.313 M 1.91,12.164 C 3.527,10.593 4.337,8.282 4.337,5.231 4.337,2.283 3.624,-0.152 2.198,-2.076 0.773,-4 -1.438,-4.962 -4.437,-4.962 c -2.5,0 -4.486,0.851 -5.957,2.553 -1.47,1.701 -2.206,3.986 -2.206,6.855 0,3.074 0.776,5.521 2.326,7.343 1.549,1.821 3.631,2.732 6.245,2.732 2.342,0 4.321,-0.786 5.939,-2.357" />
              </g>
              <g
                 style="stroke-width:0.81005508"
                 id="g120"
                 transform="translate(487.55,303.68)">
                <path
                   style="fill:#000000;stroke-width:0.81005508"
                   inkscape:connector-curvature="0"
                   id="path118"
                   d="m 0,0 h 3.042 v -2.598 c 0.729,0.9 1.39,1.556 1.982,1.966 1.014,0.694 2.164,1.042 3.453,1.042 1.458,0 2.631,-0.359 3.52,-1.077 0.501,-0.41 0.957,-1.014 1.367,-1.811 0.684,0.979 1.488,1.706 2.409,2.179 0.924,0.472 1.96,0.709 3.112,0.709 2.461,0 4.135,-0.889 5.023,-2.666 0.479,-0.957 0.719,-2.244 0.719,-3.862 v -12.185 h -3.196 v 12.715 c 0,1.218 -0.305,2.056 -0.914,2.512 -0.611,0.455 -1.354,0.683 -2.231,0.683 -1.208,0 -2.247,-0.404 -3.119,-1.213 -0.871,-0.809 -1.308,-2.159 -1.308,-4.051 v -10.646 h -3.127 v 11.946 c 0,1.241 -0.148,2.147 -0.444,2.717 -0.468,0.854 -1.339,1.282 -2.614,1.282 -1.162,0 -2.22,-0.451 -3.171,-1.35 -0.951,-0.901 -1.427,-2.53 -1.427,-4.888 v -9.707 H 0 Z" />
              </g>
            </g>
            <g
               style="stroke-width:0.81005508"
               id="g4848">
              <path
                 style="fill:#000000;stroke-width:0.81005508"
                 inkscape:connector-curvature="0"
                 id="path122"
                 d="m 193.58,269.49 h 3.435 v -25.105 h -3.435 z" />
              <g
                 style="stroke-width:0.81005508"
                 id="g126"
                 transform="translate(202.04,269.49)">
                <path
                   style="fill:#000000;stroke-width:0.81005508"
                   inkscape:connector-curvature="0"
                   id="path124"
                   d="M 0,0 H 4.872 L 12.091,-21.227 19.259,0 h 4.838 V -25.105 H 20.85 v 14.816 c 0,0.514 0.011,1.361 0.034,2.547 0.022,1.184 0.034,2.455 0.034,3.81 L 13.75,-25.105 H 10.38 L 3.145,-3.932 V -4.7 c 0,-0.615 0.017,-1.553 0.051,-2.812 0.034,-1.259 0.051,-2.184 0.051,-2.777 V -25.105 H 0 Z" />
              </g>
              <g
                 style="stroke-width:0.81005508"
                 id="g130"
                 transform="translate(249.13,269.49)">
                <path
                   style="fill:#000000;stroke-width:0.81005508"
                   inkscape:connector-curvature="0"
                   id="path128"
                   d="m 0,0 v -2.991 h -8.459 v -22.114 h -3.436 v 22.114 h -8.459 V 0 Z" />
              </g>
              <path
                 style="fill:#000000;stroke-width:0.81005508"
                 inkscape:connector-curvature="0"
                 id="path132"
                 d="m 247.33688,255.71 h 8.579 v -3.161 h -8.579 z" />
              <g
                 style="stroke-width:0.81005508"
                 transform="translate(-3.88737)"
                 id="g1056">
                <g
                   transform="translate(268.25,269.49)"
                   id="g136"
                   style="stroke-width:0.81005508">
                  <path
                     d="m 0,0 v -15.518 c 0,-1.823 0.344,-3.338 1.034,-4.546 1.022,-1.823 2.744,-2.735 5.168,-2.735 2.905,0 4.88,0.986 5.925,2.957 0.563,1.071 0.844,2.512 0.844,4.324 V 0 h 3.435 v -14.1 c 0,-3.087 -0.417,-5.462 -1.252,-7.127 -1.532,-3.03 -4.424,-4.544 -8.677,-4.544 -4.253,0 -7.14,1.514 -8.66,4.544 -0.835,1.665 -1.252,4.04 -1.252,7.127 V 0 Z"
                     id="path134"
                     inkscape:connector-curvature="0"
                     style="fill:#000000;stroke-width:0.81005508" />
                </g>
                <g
                   transform="translate(289.01,262.68)"
                   id="g140"
                   style="stroke-width:0.81005508">
                  <path
                     d="m 0,0 h 2.922 v -2.598 c 0.866,1.072 1.783,1.84 2.752,2.308 0.968,0.467 2.045,0.7 3.23,0.7 2.597,0 4.352,-0.905 5.263,-2.717 0.501,-0.991 0.752,-2.41 0.752,-4.255 v -11.741 h -3.127 v 11.535 c 0,1.118 -0.166,2.018 -0.496,2.702 -0.546,1.138 -1.538,1.709 -2.973,1.709 -0.73,0 -1.328,-0.076 -1.795,-0.223 C 5.685,-2.831 4.944,-3.332 4.307,-4.084 3.794,-4.688 3.461,-5.312 3.307,-5.955 3.153,-6.6 3.076,-7.52 3.076,-8.715 v -9.588 H 0 Z"
                     id="path138"
                     inkscape:connector-curvature="0"
                     style="fill:#000000;stroke-width:0.81005508" />
                </g>
                <path
                   d="m 308.04,262.6 h 3.127 v -18.218 h -3.127 z m 0,6.887 h 3.127 v -3.486 h -3.127 z"
                   id="path142"
                   inkscape:connector-curvature="0"
                   style="fill:#000000;stroke-width:0.81005508" />
                <g
                   transform="translate(317.04,262.68)"
                   id="g146"
                   style="stroke-width:0.81005508">
                  <path
                     d="M 0,0 4.888,-14.902 9.98,0 h 3.367 L 6.457,-18.303 H 3.179 L -3.572,0 Z"
                     id="path144"
                     inkscape:connector-curvature="0"
                     style="fill:#000000;stroke-width:0.81005508" />
                </g>
                <g
                   transform="translate(344.43,254.99)"
                   id="g150"
                   style="stroke-width:0.81005508">
                  <path
                     d="M 0,0 C -0.125,1.332 -0.413,2.397 -0.864,3.195 -1.7,4.676 -3.096,5.417 -5.05,5.417 -6.451,5.417 -7.626,4.907 -8.575,3.888 -9.524,2.867 -10.027,1.572 -10.083,0 Z M -1.102,7.186 C 0.11,6.576 1.033,5.787 1.667,4.818 2.278,3.896 2.686,2.819 2.89,1.589 3.071,0.745 3.162,-0.599 3.162,-2.444 h -13.313 c 0.056,-1.863 0.491,-3.357 1.305,-4.482 0.814,-1.125 2.075,-1.687 3.782,-1.687 1.593,0 2.865,0.531 3.815,1.595 0.531,0.619 0.908,1.334 1.129,2.147 H 2.905 C 2.825,-5.544 2.561,-6.293 2.11,-7.118 1.66,-7.944 1.158,-8.62 0.604,-9.144 c -0.927,-0.912 -2.075,-1.526 -3.442,-1.845 -0.736,-0.182 -1.567,-0.274 -2.494,-0.274 -2.264,0 -4.183,0.829 -5.757,2.487 -1.574,1.658 -2.361,3.979 -2.361,6.964 0,2.939 0.793,5.326 2.378,7.161 1.585,1.834 3.657,2.751 6.217,2.751 1.291,0 2.542,-0.305 3.753,-0.914"
                     id="path148"
                     inkscape:connector-curvature="0"
                     style="fill:#000000;stroke-width:0.81005508" />
                </g>
                <g
                   transform="translate(351.06,262.68)"
                   id="g154"
                   style="stroke-width:0.81005508">
                  <path
                     d="m 0,0 h 2.922 v -3.161 c 0.24,0.615 0.826,1.364 1.761,2.247 0.934,0.883 2.01,1.324 3.23,1.324 0.056,0 0.153,-0.006 0.29,-0.016 C 8.34,0.382 8.573,0.359 8.904,0.325 V -2.922 C 8.721,-2.888 8.553,-2.865 8.4,-2.854 8.246,-2.843 8.078,-2.836 7.896,-2.836 6.346,-2.836 5.155,-3.335 4.324,-4.332 3.492,-5.329 3.076,-6.477 3.076,-7.775 V -18.303 H 0 Z"
                     id="path152"
                     inkscape:connector-curvature="0"
                     style="fill:#000000;stroke-width:0.81005508" />
                </g>
                <g
                   transform="translate(364.34,250.12)"
                   id="g158"
                   style="stroke-width:0.81005508">
                  <path
                     d="m 0,0 c 0.093,-1.025 0.354,-1.812 0.785,-2.358 0.791,-0.992 2.163,-1.488 4.116,-1.488 1.163,0 2.186,0.248 3.07,0.744 0.884,0.496 1.326,1.262 1.326,2.299 0,0.785 -0.354,1.384 -1.06,1.794 C 7.786,1.241 6.894,1.532 5.563,1.863 L 3.079,2.479 c -1.586,0.386 -2.756,0.82 -3.508,1.298 -1.343,0.831 -2.015,1.983 -2.015,3.452 0,1.732 0.632,3.133 1.897,4.205 1.264,1.07 2.964,1.605 5.1,1.605 2.794,0 4.809,-0.809 6.044,-2.426 0.774,-1.025 1.149,-2.131 1.127,-3.316 H 8.818 C 8.76,7.988 8.509,8.617 8.066,9.184 7.343,9.988 6.089,10.391 4.305,10.391 3.115,10.391 2.214,10.169 1.602,9.727 0.99,9.284 0.684,8.699 0.684,7.973 0.684,7.178 1.086,6.542 1.891,6.065 2.354,5.781 3.04,5.531 3.945,5.314 L 6.017,4.819 c 2.252,-0.536 3.761,-1.053 4.527,-1.555 1.197,-0.785 1.795,-2.023 1.795,-3.708 0,-1.63 -0.626,-3.036 -1.878,-4.222 -1.251,-1.185 -3.157,-1.777 -5.718,-1.777 -2.757,0 -4.709,0.619 -5.857,1.854 -1.147,1.236 -1.762,2.766 -1.843,4.589 z"
                     id="path156"
                     inkscape:connector-curvature="0"
                     style="fill:#000000;stroke-width:0.81005508" />
                </g>
                <path
                   d="m 379.74,262.6 h 3.127 v -18.218 h -3.127 z m 0,6.887 h 3.127 v -3.486 h -3.127 z"
                   id="path160"
                   inkscape:connector-curvature="0"
                   style="fill:#000000;stroke-width:0.81005508" />
                <g
                   transform="translate(387.74,267.79)"
                   id="g164"
                   style="stroke-width:0.81005508">
                  <path
                     d="M 0,0 H 3.11 V -5.11 H 6.033 V -7.622 H 3.11 v -11.945 c 0,-0.639 0.217,-1.067 0.65,-1.283 0.239,-0.126 0.637,-0.188 1.196,-0.188 0.148,0 0.308,0.004 0.479,0.012 0.17,0.007 0.37,0.026 0.598,0.056 v -2.443 c -0.354,-0.103 -0.721,-0.177 -1.102,-0.223 -0.383,-0.045 -0.795,-0.068 -1.24,-0.068 -1.435,0 -2.409,0.368 -2.922,1.102 C 0.256,-21.866 0,-20.912 0,-19.739 V -7.622 H -2.478 V -5.11 H 0 Z"
                     id="path162"
                     inkscape:connector-curvature="0"
                     style="fill:#000000;stroke-width:0.81005508" />
                </g>
                <g
                   transform="translate(407.29,270.05)"
                   id="g168"
                   style="stroke-width:0.81005508">
                  <path
                     d="M 0,0 -4.563,-4.938 H -6.921 L -3.794,0 Z m 1.23,-15.056 c -0.124,1.332 -0.412,2.398 -0.864,3.196 -0.836,1.48 -2.231,2.221 -4.185,2.221 -1.401,0 -2.577,-0.509 -3.525,-1.529 -0.949,-1.02 -1.452,-2.315 -1.509,-3.888 z M 0.129,-7.87 c 1.211,-0.609 2.134,-1.399 2.768,-2.367 0.612,-0.922 1.019,-1.999 1.223,-3.23 0.181,-0.844 0.272,-2.187 0.272,-4.033 H -8.921 c 0.057,-1.862 0.492,-3.356 1.306,-4.481 0.814,-1.125 2.074,-1.688 3.781,-1.688 1.594,0 2.866,0.531 3.815,1.596 0.532,0.618 0.908,1.334 1.13,2.146 H 4.136 C 4.056,-20.6 3.791,-21.349 3.341,-22.174 2.891,-23 2.389,-23.676 1.835,-24.199 c -0.927,-0.912 -2.075,-1.527 -3.443,-1.846 -0.735,-0.182 -1.566,-0.273 -2.493,-0.273 -2.265,0 -4.184,0.829 -5.758,2.486 -1.574,1.658 -2.36,3.979 -2.36,6.964 0,2.939 0.792,5.326 2.378,7.161 1.585,1.834 3.657,2.751 6.216,2.751 1.291,0 2.542,-0.305 3.754,-0.914"
                     id="path166"
                     inkscape:connector-curvature="0"
                     style="fill:#000000;stroke-width:0.81005508" />
                </g>
              </g>
            </g>
            <g
               style="stroke-width:0.81005508"
               id="g1062"
               transform="translate(-7.3650776)">
              <g
                 style="stroke-width:0.81005508"
                 id="g172"
                 transform="translate(428.49,248.4)">
                <path
                   style="fill:#000000;stroke-width:0.81005508"
                   inkscape:connector-curvature="0"
                   id="path170"
                   d="m 0,0 c 0.827,-1.321 2.153,-1.982 3.979,-1.982 1.417,0 2.582,0.612 3.494,1.837 0.913,1.225 1.369,2.983 1.369,5.272 0,2.313 -0.471,4.025 -1.411,5.136 C 6.489,11.374 5.328,11.93 3.944,11.93 2.403,11.93 1.153,11.337 0.195,10.152 -0.763,8.967 -1.241,7.224 -1.241,4.922 -1.241,2.963 -0.827,1.322 0,0 M 6.866,13.724 C 7.411,13.382 8.029,12.783 8.723,11.93 v 9.245 h 2.956 V -4.016 H 8.91 v 2.547 C 8.195,-2.598 7.35,-3.412 6.373,-3.913 5.397,-4.414 4.279,-4.665 3.02,-4.665 c -2.032,0 -3.791,0.857 -5.278,2.572 -1.487,1.714 -2.23,3.996 -2.23,6.845 0,2.666 0.677,4.976 2.034,6.93 1.356,1.953 3.294,2.93 5.813,2.93 1.397,0 2.566,-0.297 3.507,-0.888" />
              </g>
              <g
                 style="stroke-width:0.81005508"
                 id="g176"
                 transform="translate(456.82,254.99)">
                <path
                   style="fill:#000000;stroke-width:0.81005508"
                   inkscape:connector-curvature="0"
                   id="path174"
                   d="M 0,0 C -0.124,1.332 -0.412,2.397 -0.864,3.195 -1.7,4.676 -3.096,5.417 -5.05,5.417 -6.451,5.417 -7.626,4.907 -8.575,3.888 -9.523,2.867 -10.026,1.572 -10.083,0 Z M -1.102,7.186 C 0.109,6.576 1.032,5.787 1.667,4.818 2.278,3.896 2.686,2.819 2.89,1.589 3.071,0.745 3.161,-0.599 3.161,-2.444 h -13.312 c 0.056,-1.863 0.492,-3.357 1.305,-4.482 0.815,-1.125 2.075,-1.687 3.782,-1.687 1.593,0 2.866,0.531 3.815,1.595 0.531,0.619 0.908,1.334 1.129,2.147 H 2.905 C 2.825,-5.544 2.561,-6.293 2.11,-7.118 1.66,-7.944 1.158,-8.62 0.604,-9.144 c -0.927,-0.912 -2.075,-1.526 -3.443,-1.845 -0.734,-0.182 -1.565,-0.274 -2.493,-0.274 -2.264,0 -4.184,0.829 -5.757,2.487 -1.574,1.658 -2.361,3.979 -2.361,6.964 0,2.939 0.793,5.326 2.378,7.161 1.586,1.834 3.657,2.751 6.217,2.751 1.291,0 2.542,-0.305 3.753,-0.914" />
              </g>
            </g>
            <g
               style="stroke-width:0.81005508"
               id="g1071"
               transform="translate(-12.55178)">
              <g
                 style="stroke-width:0.81005508"
                 id="g180"
                 transform="translate(474.01,269.49)">
                <path
                   style="fill:#000000;stroke-width:0.81005508"
                   inkscape:connector-curvature="0"
                   id="path178"
                   d="m 0,0 h 3.4 v -22.115 h 12.596 v -2.99 H 0 Z" />
              </g>
              <path
                 style="fill:#000000;stroke-width:0.81005508"
                 inkscape:connector-curvature="0"
                 id="path182"
                 d="m 492.6,262.6 h 3.127 V 244.382 H 492.6 Z m 0,6.887 h 3.127 v -3.486 H 492.6 Z" />
              <path
                 style="fill:#000000;stroke-width:0.81005508"
                 inkscape:connector-curvature="0"
                 id="path184"
                 d="m 499.95,269.49 h 3.076 v -25.105 h -3.076 z" />
              <path
                 style="fill:#000000;stroke-width:0.81005508"
                 inkscape:connector-curvature="0"
                 id="path186"
                 d="m 507.23,269.49 h 3.076 v -25.105 h -3.076 z" />
              <g
                 style="stroke-width:0.81005508"
                 id="g190"
                 transform="translate(526.98,254.99)">
                <path
                   style="fill:#000000;stroke-width:0.81005508"
                   inkscape:connector-curvature="0"
                   id="path188"
                   d="M 0,0 C -0.124,1.332 -0.412,2.397 -0.864,3.195 -1.7,4.676 -3.096,5.417 -5.05,5.417 -6.451,5.417 -7.626,4.907 -8.575,3.888 -9.523,2.867 -10.026,1.572 -10.083,0 Z M -1.102,7.186 C 0.109,6.576 1.032,5.787 1.667,4.818 2.278,3.896 2.686,2.819 2.89,1.589 3.071,0.745 3.161,-0.599 3.161,-2.444 h -13.312 c 0.056,-1.863 0.492,-3.357 1.305,-4.482 0.815,-1.125 2.075,-1.687 3.782,-1.687 1.593,0 2.866,0.531 3.815,1.595 0.531,0.619 0.908,1.334 1.129,2.147 H 2.905 C 2.825,-5.544 2.561,-6.293 2.11,-7.118 1.66,-7.944 1.158,-8.62 0.604,-9.144 c -0.927,-0.912 -2.075,-1.526 -3.443,-1.845 -0.734,-0.182 -1.565,-0.274 -2.493,-0.274 -2.264,0 -4.184,0.829 -5.757,2.487 -1.574,1.658 -2.361,3.979 -2.361,6.964 0,2.939 0.793,5.326 2.378,7.161 1.586,1.834 3.657,2.751 6.217,2.751 1.291,0 2.542,-0.305 3.753,-0.914" />
              </g>
            </g>
          </g>
          <g
             id="g1049"
             transform="translate(84.80105,-1.56889)">
            <path
               sodipodi:nodetypes="cccc"
               inkscape:connector-curvature="0"
               id="path923"
               d="M -1127.5489,1234.5272 V 174.51399 H -67.535628 Z"
               style="fill:#0c2340;fill-opacity:1;stroke:none;stroke-width:1.76668894px;stroke-linecap:butt;stroke-linejoin:miter;stroke-opacity:1" />
            <path
               sodipodi:nodetypes="cccc"
               inkscape:connector-curvature="0"
               id="path921"
               d="M -597.54224,174.51399 -67.535628,704.5206 462.47099,174.51399 Z"
               style="fill:#f2a900;fill-opacity:1;stroke:none;stroke-width:1.7666887px;stroke-linecap:butt;stroke-linejoin:miter;stroke-opacity:1" />
          </g>
          <path
             style="fill:#ffffff;fill-opacity:1;stroke:none;stroke-width:1.76668847px;stroke-linecap:butt;stroke-linejoin:miter;stroke-opacity:1"
             d="M -1070.231,-11.942043 637.47673,1695.7656 H -1066.6014 Z"
             id="path924"
             inkscape:connector-curvature="0" />
        </g>
      </g>
    </g>
  </g>
</svg>
